<svg xmlns="http://www.w3.org/2000/svg" xmlns:xlink="http://www.w3.org/1999/xlink" width="191.39" height="190.811" viewBox="0 0 191.39 190.811">
  <defs>
    <clipPath id="clip-path">
      <path id="Path_14" data-name="Path 14" d="M0,141.072H191.39V-49.739H0Z" transform="translate(0 49.739)" fill="none"/>
    </clipPath>
  </defs>
  <g id="Group_12" data-name="Group 12" transform="translate(0 49.739)">
    <g id="Group_11" data-name="Group 11" transform="translate(0 -49.739)" clip-path="url(#clip-path)">
      <g id="Group_9" data-name="Group 9" transform="translate(61.003 60.959)">
        <path id="Path_12" data-name="Path 12" d="M25.657,54.675a36.48,36.48,0,0,1-14.5-2.976A37.049,37.049,0,0,1-.664,43.594,37.7,37.7,0,0,1-8.627,31.585a38.451,38.451,0,0,1,0-29.39A37.7,37.7,0,0,1-.664-9.814,37.049,37.049,0,0,1,11.161-17.92a36.788,36.788,0,0,1,28.991,0A37.049,37.049,0,0,1,51.978-9.814,37.7,37.7,0,0,1,59.94,2.195a38.451,38.451,0,0,1,0,29.39,37.7,37.7,0,0,1-7.963,12.009A37.049,37.049,0,0,1,40.152,51.7,36.48,36.48,0,0,1,25.657,54.675Zm0-70.571a31.508,31.508,0,0,0-12.52,2.569A32.072,32.072,0,0,0,2.9-6.308,32.718,32.718,0,0,0-4.011,4.115a33.452,33.452,0,0,0,0,25.55A32.718,32.718,0,0,0,2.9,40.088a32.072,32.072,0,0,0,10.236,7.018,31.788,31.788,0,0,0,25.04,0,32.072,32.072,0,0,0,10.236-7.018,32.718,32.718,0,0,0,6.911-10.423,33.452,33.452,0,0,0,0-25.55A32.718,32.718,0,0,0,48.413-6.308a32.072,32.072,0,0,0-10.236-7.018A31.508,31.508,0,0,0,25.657-15.9Z" transform="translate(9.046 18.396)" fill="#fff"/>
      </g>
      <g id="Group_10" data-name="Group 10" transform="translate(5.97 5.756)">
        <path id="Path_13" data-name="Path 13" d="M61.136-10.01h30.8l.579,17.433,23.856,9.936L131.4,6.959,151.58,27.782,140.535,41.728l7.42,21.76,20.493,4.552.651,30.477-18.6.583-8.841,21.116,9.62,14.708L136.22,156.518,119.713,146.5l-25.6,9.03-1.146,16.605L64.139,174.1l-2.9-18.011L36.65,146.555,21.73,156.883.271,138.03,10.8,123.409,2.883,101.648-14.3,98.785l-1.3-29.127L.172,66.736l9.5-23L.531,30.031,18.549,7.514,37,18.468,59.969,7.487Zm25.965,5H65.813l-1.05,15.747L36.747,24.132l-17.01-10.1L6.72,30.3,15.31,43.184,3.756,71.157l-14.163,2.625.922,20.737L6.584,97.2l9.816,26.99L6.98,137.269,22.1,150.549l13.889-9.614,29.729,11.524L68.349,168.8l19.934-1.358L89.355,151.9l30.928-10.911,14.52,8.815,10.44-14.973-9.224-14.1L147.126,94.2l16.868-.529-.461-21.6-19.4-4.31-9.206-27,10.016-12.647L130.76,13.483l-13.789,9.541L87.626,10.8Z" transform="translate(13.001 7.51)" fill="#fff"/>
      </g>
    </g>
  </g>
</svg>
