<svg xmlns="http://www.w3.org/2000/svg" width="129" height="125" viewBox="0 0 129 125">
  <g id="Group_17" data-name="Group 17" transform="translate(-248 -2571)">
    <rect id="Rectangle_15" data-name="Rectangle 15" width="37" height="37" transform="translate(248 2571)" fill="#363636"/>
    <path id="Rectangle_15_-_Outline" data-name="Rectangle 15 - Outline" d="M1,1V36H36V1H1M0,0H37V37H0Z" transform="translate(248 2571)" fill="#707070"/>
    <rect id="Rectangle_16" data-name="Rectangle 16" width="37" height="37" transform="translate(294 2571)" fill="#363636"/>
    <path id="Rectangle_16_-_Outline" data-name="Rectangle 16 - Outline" d="M1,1V36H36V1H1M0,0H37V37H0Z" transform="translate(294 2571)" fill="#707070"/>
    <rect id="Rectangle_17" data-name="Rectangle 17" width="37" height="37" transform="translate(340 2571)" fill="#363636"/>
    <path id="Rectangle_17_-_Outline" data-name="Rectangle 17 - Outline" d="M1,1V36H36V1H1M0,0H37V37H0Z" transform="translate(340 2571)" fill="#707070"/>
    <rect id="Rectangle_18" data-name="Rectangle 18" width="37" height="37" transform="translate(248 2615)" fill="#363636"/>
    <path id="Rectangle_18_-_Outline" data-name="Rectangle 18 - Outline" d="M1,1V36H36V1H1M0,0H37V37H0Z" transform="translate(248 2615)" fill="#707070"/>
    <rect id="Rectangle_19" data-name="Rectangle 19" width="37" height="37" transform="translate(294 2615)" fill="#363636"/>
    <path id="Rectangle_19_-_Outline" data-name="Rectangle 19 - Outline" d="M1,1V36H36V1H1M0,0H37V37H0Z" transform="translate(294 2615)" fill="#707070"/>
    <rect id="Rectangle_20" data-name="Rectangle 20" width="37" height="37" transform="translate(340 2615)" fill="#363636"/>
    <path id="Rectangle_20_-_Outline" data-name="Rectangle 20 - Outline" d="M1,1V36H36V1H1M0,0H37V37H0Z" transform="translate(340 2615)" fill="#707070"/>
    <rect id="Rectangle_21" data-name="Rectangle 21" width="37" height="37" transform="translate(248 2659)" fill="#363636"/>
    <path id="Rectangle_21_-_Outline" data-name="Rectangle 21 - Outline" d="M1,1V36H36V1H1M0,0H37V37H0Z" transform="translate(248 2659)" fill="#707070"/>
    <rect id="Rectangle_22" data-name="Rectangle 22" width="37" height="37" transform="translate(294 2659)" fill="#363636"/>
    <path id="Rectangle_22_-_Outline" data-name="Rectangle 22 - Outline" d="M1,1V36H36V1H1M0,0H37V37H0Z" transform="translate(294 2659)" fill="#707070"/>
    <rect id="Rectangle_23" data-name="Rectangle 23" width="37" height="37" transform="translate(340 2659)" fill="#363636"/>
    <path id="Rectangle_23_-_Outline" data-name="Rectangle 23 - Outline" d="M1,1V36H36V1H1M0,0H37V37H0Z" transform="translate(340 2659)" fill="#707070"/>
  </g>
</svg>
