<svg xmlns="http://www.w3.org/2000/svg" xmlns:xlink="http://www.w3.org/1999/xlink" width="145.232" height="158.266" viewBox="0 0 145.232 158.266">
  <defs>
    <clipPath id="clip-path">
      <path id="Path_4" data-name="Path 4" d="M0,74.034H145.232V-84.232H0Z" transform="translate(0 84.232)" fill="none"/>
    </clipPath>
  </defs>
  <g id="Group_6" data-name="Group 6" transform="translate(0 84.232)">
    <g id="Group_5" data-name="Group 5" transform="translate(0 -84.232)" clip-path="url(#clip-path)">
      <g id="Group_4" data-name="Group 4" transform="translate(2.819 3.389)">
        <path id="Path_3" data-name="Path 3" d="M37.5-3.006,33.1,1.7h0a48.843,48.843,0,0,0-4.393,5.842,73.959,73.959,0,0,0-8,16.373,72.676,72.676,0,0,0-3.939,25.211A83.732,83.732,0,0,0,24.5,81.756l.027.061a41.773,41.773,0,0,0,3.011,5.468,63.155,63.155,0,0,0,9.946,11.963,62,62,0,0,0,18.232,11.887A71.448,71.448,0,0,0,83.8,116.542a100.145,100.145,0,0,0,17.65-1.652l4.823-.868-2.128,4.414a66.717,66.717,0,0,1-14.165,18.108,67.991,67.991,0,0,1-18.892,12.384,69.243,69.243,0,0,1-27.851,5.631,87.521,87.521,0,0,1-16.052-1.547L27.108,153l-.079-.02c-.123-.031-3.063-.79-7.643-2.478a120.694,120.694,0,0,1-17.531-8.117,90.22,90.22,0,0,1-19.918-15.021,60.567,60.567,0,0,1-14.572-23.21,75.06,75.06,0,0,1-5.018-21,81.227,81.227,0,0,1,.688-21.764,77.776,77.776,0,0,1,8.991-25.27A74.888,74.888,0,0,1-13.922,18.041,75.88,75.88,0,0,1,4.424,4.94,71.4,71.4,0,0,1,31.073-2.492ZM19.926,83.782a88.621,88.621,0,0,1-8.159-34.7,77.659,77.659,0,0,1,4.291-27.01A78.939,78.939,0,0,1,24.65,4.617q.492-.743.952-1.4A65.934,65.934,0,0,0,6.782,9.351,70.821,70.821,0,0,0-10.323,21.517,77.338,77.338,0,0,0-20.3,33.195a50.718,50.718,0,0,0-3.235,5.23l-.027.053-.028.049A72.8,72.8,0,0,0-32.035,62.22a76.226,76.226,0,0,0-.643,20.424,70.071,70.071,0,0,0,4.66,19.584l.052.116.04.12a55.585,55.585,0,0,0,13.432,21.395A85.24,85.24,0,0,0,4.324,138.033,110.394,110.394,0,0,0,28.2,148.114a82.469,82.469,0,0,0,15.044,1.445,64.276,64.276,0,0,0,25.853-5.215,63,63,0,0,0,17.5-11.478,67.552,67.552,0,0,0,10.454-12.228,101.186,101.186,0,0,1-13.247.9,76.353,76.353,0,0,1-30.191-5.867,66.985,66.985,0,0,1-19.728-12.946A61.953,61.953,0,0,1,19.926,83.782Z" transform="translate(35.579)" fill="#fff"/>
      </g>
    </g>
  </g>
</svg>
